<svg width="33" height="30" viewBox="0 0 33 30" fill="none" xmlns="http://www.w3.org/2000/svg">
<path fill-rule="evenodd" clip-rule="evenodd" d="M22.25 6.7003C22.25 6.01437 21.6903 5.45831 21 5.45831C20.3096 5.45831 19.75 6.01437 19.75 6.7003V7.63179H19.0532C16.2719 7.63179 13.9699 9.78043 13.7963 12.5385L13.52 16.927C13.4147 18.6002 12.8493 20.2127 11.8855 21.5887C11.0146 22.832 11.7899 24.5491 13.3036 24.7296L17.5625 25.2374V26.572C17.5625 28.4584 19.1015 29.9875 21 29.9875C22.8985 29.9875 24.4375 28.4584 24.4375 26.572V25.2374L28.6964 24.7296C30.2101 24.5491 30.9853 22.832 30.1145 21.5887C29.1506 20.2127 28.5853 18.6002 28.48 16.927L28.2037 12.5385C28.0301 9.78043 25.7281 7.63179 22.9467 7.63179H22.25V6.7003ZM19.0532 9.49476C17.262 9.49476 15.7794 10.8785 15.6676 12.6548L15.3913 17.0433C15.2646 19.0568 14.5843 20.997 13.4245 22.6529C13.3615 22.7427 13.4176 22.8668 13.527 22.8799L18.199 23.4369C20.0597 23.6588 21.9403 23.6588 23.8009 23.4369L28.473 22.8799C28.5824 22.8668 28.6384 22.7427 28.5755 22.6529C27.4157 20.997 26.7354 19.0568 26.6086 17.0433L26.3324 12.6548C26.2205 10.8785 24.738 9.49476 22.9467 9.49476H19.0532ZM21 28.1245C20.137 28.1245 19.4375 27.4295 19.4375 26.572V25.6406H22.5625V26.572C22.5625 27.4295 21.8629 28.1245 21 28.1245Z" fill="#4F5665"/>
<circle cx="28" cy="10" r="4.75" fill="#FF5E3A" stroke="#4F5665" stroke-width="0.5"/>
</svg>
